<mxfile host="app.diagrams.net" modified="2021-09-01T12:16:36.459Z" agent="5.0 (Macintosh; Intel Mac OS X 10_15_7) AppleWebKit/537.36 (KHTML, like Gecko) Chrome/92.0.4515.159 Safari/537.36" etag="fpE6eiDUr-r-xaFxtlY0" version="15.0.4" type="github">
  <diagram id="vkPqAsPqn2dS_j9UvSSV" name="Page-1">
    <mxGraphModel dx="1559" dy="1712" grid="1" gridSize="10" guides="1" tooltips="1" connect="1" arrows="1" fold="1" page="1" pageScale="1" pageWidth="827" pageHeight="1169" math="0" shadow="0">
      <root>
        <mxCell id="0" />
        <mxCell id="1" parent="0" />
        <mxCell id="fTU0_BCFbl_832D9JvGx-1" value="" style="shape=curlyBracket;whiteSpace=wrap;html=1;rounded=1;" vertex="1" parent="1">
          <mxGeometry x="200" y="70" width="20" height="130" as="geometry" />
        </mxCell>
        <mxCell id="fTU0_BCFbl_832D9JvGx-2" value="drv-&amp;gt;p-&amp;gt;kobj-&amp;gt;ktype =" style="text;html=1;align=center;verticalAlign=middle;resizable=0;points=[];autosize=1;strokeColor=none;" vertex="1" parent="1">
          <mxGeometry x="220" y="70" width="130" height="20" as="geometry" />
        </mxCell>
        <mxCell id="fTU0_BCFbl_832D9JvGx-3" value="drv-&amp;gt;p-&amp;gt;kobj-&amp;gt;kref =" style="text;html=1;align=center;verticalAlign=middle;resizable=0;points=[];autosize=1;strokeColor=none;" vertex="1" parent="1">
          <mxGeometry x="220" y="100" width="120" height="20" as="geometry" />
        </mxCell>
        <mxCell id="fTU0_BCFbl_832D9JvGx-4" value="drv-&amp;gt;p-&amp;gt;kobj-&amp;gt;state....." style="text;html=1;align=center;verticalAlign=middle;resizable=0;points=[];autosize=1;strokeColor=none;" vertex="1" parent="1">
          <mxGeometry x="220" y="130" width="140" height="20" as="geometry" />
        </mxCell>
        <mxCell id="fTU0_BCFbl_832D9JvGx-5" value="INIT_LIST_HEAD(drv-&amp;gt;p-&amp;gt;kobj-&amp;gt;entry)" style="text;html=1;align=center;verticalAlign=middle;resizable=0;points=[];autosize=1;strokeColor=none;" vertex="1" parent="1">
          <mxGeometry x="220" y="160" width="220" height="20" as="geometry" />
        </mxCell>
        <mxCell id="fTU0_BCFbl_832D9JvGx-6" value="Kobject_init(drv-&amp;gt;p-&amp;gt;kobj)" style="text;html=1;align=center;verticalAlign=middle;resizable=0;points=[];autosize=1;strokeColor=none;" vertex="1" parent="1">
          <mxGeometry x="30" y="125" width="150" height="20" as="geometry" />
        </mxCell>
        <mxCell id="fTU0_BCFbl_832D9JvGx-7" value="drv-&amp;gt;p-&amp;gt;obj-&amp;gt;kset = drv-&amp;gt;bus-&amp;gt;p-&amp;gt;drivers_kset" style="text;html=1;align=center;verticalAlign=middle;resizable=0;points=[];autosize=1;strokeColor=none;" vertex="1" parent="1">
          <mxGeometry x="30" y="20" width="260" height="20" as="geometry" />
        </mxCell>
        <mxCell id="fTU0_BCFbl_832D9JvGx-8" value="int driver_register(struct device *drv)" style="text;html=1;align=center;verticalAlign=middle;resizable=0;points=[];autosize=1;strokeColor=none;" vertex="1" parent="1">
          <mxGeometry x="-240" y="200" width="210" height="20" as="geometry" />
        </mxCell>
        <mxCell id="fTU0_BCFbl_832D9JvGx-9" value="drv-&amp;gt;p-&amp;gt;driver = drv" style="text;html=1;align=center;verticalAlign=middle;resizable=0;points=[];autosize=1;strokeColor=none;" vertex="1" parent="1">
          <mxGeometry x="30" y="-30" width="120" height="20" as="geometry" />
        </mxCell>
        <mxCell id="fTU0_BCFbl_832D9JvGx-10" value="drv-&amp;gt;p-&amp;gt;priv = kzalloc()" style="text;html=1;align=center;verticalAlign=middle;resizable=0;points=[];autosize=1;strokeColor=none;" vertex="1" parent="1">
          <mxGeometry x="30" y="-80" width="140" height="20" as="geometry" />
        </mxCell>
        <mxCell id="fTU0_BCFbl_832D9JvGx-11" value="Kobject_add_vargs" style="text;html=1;align=center;verticalAlign=middle;resizable=0;points=[];autosize=1;strokeColor=none;" vertex="1" parent="1">
          <mxGeometry x="45" y="350" width="120" height="20" as="geometry" />
        </mxCell>
        <mxCell id="fTU0_BCFbl_832D9JvGx-12" value="drv-&amp;gt;p-&amp;gt;kobj-&amp;gt;name =" style="text;html=1;align=center;verticalAlign=middle;resizable=0;points=[];autosize=1;strokeColor=none;" vertex="1" parent="1">
          <mxGeometry x="220" y="250" width="130" height="20" as="geometry" />
        </mxCell>
        <mxCell id="fTU0_BCFbl_832D9JvGx-13" value="drv-&amp;gt;p-&amp;gt;kobj-&amp;gt;parent = drv-&amp;gt;p-&amp;gt;kobj-&amp;gt;kset-&amp;gt;kobj" style="text;html=1;align=center;verticalAlign=middle;resizable=0;points=[];autosize=1;strokeColor=none;" vertex="1" parent="1">
          <mxGeometry x="220" y="300" width="270" height="20" as="geometry" />
        </mxCell>
        <mxCell id="fTU0_BCFbl_832D9JvGx-14" value="list_add_tail(drv-&amp;gt;p-&amp;gt;kobj-&amp;gt;entry, drv-&amp;gt;p-&amp;gt;kobj-&amp;gt;kset-&amp;gt;list)" style="text;html=1;align=center;verticalAlign=middle;resizable=0;points=[];autosize=1;strokeColor=none;" vertex="1" parent="1">
          <mxGeometry x="220" y="350" width="320" height="20" as="geometry" />
        </mxCell>
        <mxCell id="fTU0_BCFbl_832D9JvGx-15" value="create_dir()" style="text;html=1;align=center;verticalAlign=middle;resizable=0;points=[];autosize=1;strokeColor=none;" vertex="1" parent="1">
          <mxGeometry x="215" y="390" width="80" height="20" as="geometry" />
        </mxCell>
        <mxCell id="fTU0_BCFbl_832D9JvGx-16" value="drv-&amp;gt;p-&amp;gt;kobj-&amp;gt;state_in_sysfs. = 1" style="text;html=1;align=center;verticalAlign=middle;resizable=0;points=[];autosize=1;strokeColor=none;" vertex="1" parent="1">
          <mxGeometry x="220" y="430" width="190" height="20" as="geometry" />
        </mxCell>
        <mxCell id="fTU0_BCFbl_832D9JvGx-17" value="" style="shape=curlyBracket;whiteSpace=wrap;html=1;rounded=1;" vertex="1" parent="1">
          <mxGeometry x="170" y="260" width="20" height="190" as="geometry" />
        </mxCell>
        <mxCell id="fTU0_BCFbl_832D9JvGx-18" value="" style="shape=curlyBracket;whiteSpace=wrap;html=1;rounded=1;" vertex="1" parent="1">
          <mxGeometry x="-40" y="-70" width="60" height="440" as="geometry" />
        </mxCell>
      </root>
    </mxGraphModel>
  </diagram>
</mxfile>
